<?xml version="1.0" encoding="utf-8"?>
<!-- Generator: Adobe Illustrator 16.0.0, SVG Export Plug-In . SVG Version: 6.00 Build 0)  -->
<!DOCTYPE svg PUBLIC "-//W3C//DTD SVG 1.1//EN" "http://www.w3.org/Graphics/SVG/1.1/DTD/svg11.dtd" [
	<!ENTITY ns_extend "http://ns.adobe.com/Extensibility/1.0/">
	<!ENTITY ns_ai "http://ns.adobe.com/AdobeIllustrator/10.0/">
	<!ENTITY ns_graphs "http://ns.adobe.com/Graphs/1.0/">
	<!ENTITY ns_vars "http://ns.adobe.com/Variables/1.0/">
	<!ENTITY ns_imrep "http://ns.adobe.com/ImageReplacement/1.0/">
	<!ENTITY ns_sfw "http://ns.adobe.com/SaveForWeb/1.0/">
	<!ENTITY ns_custom "http://ns.adobe.com/GenericCustomNamespace/1.0/">
	<!ENTITY ns_adobe_xpath "http://ns.adobe.com/XPath/1.0/">
]>
<svg version="1.1" id="Layer_1" xmlns:x="&ns_extend;" xmlns:i="&ns_ai;" xmlns:graph="&ns_graphs;"
	 xmlns="http://www.w3.org/2000/svg" xmlns:xlink="http://www.w3.org/1999/xlink" x="0px" y="0px" width="508.521px"
	 height="515.91px" viewBox="0 0 508.521 515.91" enable-background="new 0 0 508.521 515.91" xml:space="preserve">
<metadata>
	<sfw  xmlns="&ns_sfw;">
		<slices></slices>
		<sliceSourceBounds  width="508.691" height="508.133" x="109.626" y="-512.921" bottomLeftOrigin="true"></sliceSourceBounds>
	</sfw>
</metadata>
<g>
	<path fill="none" d="M303.167,342.292h-95.95c19.158,9.62,42.535,12.445,47.975,12.993
		C260.632,354.737,284.01,351.912,303.167,342.292z"/>
	<path fill="#EF4136" d="M501.285,197.446l-1.437-1.254C472.042,86.195,372.433,4.788,253.795,4.788
		C113.628,4.788,0,118.416,0,258.583c0,72.438,30.35,137.787,79.024,184.028h276.395l-92.732-117.448l0.179-0.5l-0.063-0.081
		l87.457-258.366l4.849,4.223l-91.319,254.686l120.061,152.062c74.725-44.168,124.843-125.551,124.843-218.64
		C508.691,237.481,506.122,217.016,501.285,197.446z"/>
	<path fill="none" d="M501.17,198.026c-0.073-0.294-0.153-0.584-0.227-0.878L351.245,66.758l-87.457,258.366l0.063,0.081
		l91.311-254.661L501.17,198.026z"/>
	<polygon fill="none" points="263.852,325.205 263.673,325.705 356.405,443.153 356.979,443.153 	"/>
	<path fill="#F68525" d="M263.788,325.124l0.063,0.081l91.311-254.661L501.17,198.026c-0.073-0.294-0.153-0.584-0.227-0.878
		L351.245,66.758L263.788,325.124z"/>
	<linearGradient id="SVGID_1_" gradientUnits="userSpaceOnUse" x1="306.6104" y1="195.6572" x2="519.7678" y2="269.4692">
		<stop  offset="0" style="stop-color:#000000"/>
		<stop  offset="1" style="stop-color:#000000;stop-opacity:0"/>
	</linearGradient>
	<path opacity="0.69" fill="url(#SVGID_1_)" d="M263.788,325.124l0.063,0.081l91.311-254.661L501.17,198.026
		c-0.073-0.294-0.153-0.584-0.227-0.878L351.245,66.758L263.788,325.124z"/>
	<polygon fill="#2E4056" points="356.405,443.153 380.968,474.263 381.542,474.263 356.979,443.153 	"/>
	<path fill="#6F8593" d="M383.849,477.186c1.615-0.955,3.215-1.934,4.808-2.923h-7.114L383.849,477.186z"/>
	<path fill="#2E4056" d="M254.782,512.921c34.478,0,67.346-6.883,97.317-19.337H157.454
		C187.426,506.04,220.3,512.921,254.782,512.921z"/>
	<path fill="#2E4056" d="M380.968,474.263l-24.563-31.109H80.011c12.259,11.646,25.681,22.08,40.072,31.109H380.968z"/>
	<path fill="#2E4056" d="M381.542,474.263h7.114c14.506-9.014,28.041-19.445,40.4-31.109h-72.078L381.542,474.263z"/>
	<linearGradient id="SVGID_2_" gradientUnits="userSpaceOnUse" x1="292.9854" y1="235.0039" x2="506.1426" y2="308.8158">
		<stop  offset="0" style="stop-color:#000000"/>
		<stop  offset="1" style="stop-color:#000000;stop-opacity:0"/>
	</linearGradient>
	<path opacity="0.69" fill="url(#SVGID_2_)" d="M501.285,197.446l-0.342-0.298c0.073,0.294,0.153,0.584,0.227,0.878L355.162,70.544
		l-91.311,254.661l93.127,117.948h72.078c49.032-46.273,79.635-111.866,79.635-184.608
		C508.691,237.481,506.122,217.016,501.285,197.446z"/>
	<path fill="#6F8593" d="M157.454,493.584h194.645c10.952-4.552,21.521-9.84,31.635-15.818l-2.766-3.503H120.083
		C131.919,481.688,144.412,488.164,157.454,493.584z"/>
	<path fill="#D1B79F" d="M301.252,313.871v-66.603h-89.764v66.603l-26.258,10.991c0,0,4.275,39.648,71.14,39.081
		c71.139,0.567,71.139-39.081,71.139-39.081L301.252,313.871z"/>
	<path fill="#B19177" d="M211.488,250.17v63.701l-26.258,10.991c0,0-2.137,17.43,19.121,26.881l34.491-68.072"/>
	<path fill="#D1B79F" d="M350.756,165.222l-5.332-0.022c0.146-1.31,0.278-2.625,0.388-3.948c0.328-2.299,0.481-3.604,0.481-3.604
		h-0.232c0.151-2.655,0.232-5.334,0.232-8.038c0-62.019-40.495-112.297-90.448-112.297c-0.124,0-0.247,0.005-0.369,0.006v251.808
		c0.122,0.021,0.244,0.042,0.368,0.063h0.001c18.184-2.974,23.399-8.79,54.962-36.467c9.666-8.476,16.942-22.958,22.311-38.098
		c1.646,0.365,4.874,0.712,9.7-0.382c7.328-1.662,8.549-2.612,20.151-26.829C374.57,163.198,350.756,165.222,350.756,165.222z"/>
	<path fill="#6F8593" d="M303.167,342.292h76.971c-26.507-12.302-54.984-18.65-54.984-18.65
		C320.323,331.693,312.215,337.749,303.167,342.292z"/>
	<path fill="#C0A58D" d="M165.396,149.611c0,2.703,0.082,5.382,0.233,8.038h-0.233c0,0,0.153,1.308,0.482,3.615
		c0.11,1.318,0.241,2.628,0.388,3.933l-6.071,0.026c0,0-23.815-2.024-12.212,22.192c11.602,24.216,12.823,25.167,20.151,26.829
		c5.608,1.272,9.063,0.598,10.378,0.211c5.374,15.201,12.668,29.76,22.371,38.269c31.347,27.488,36.708,33.413,54.594,36.405V37.32
		C205.691,37.568,165.396,87.744,165.396,149.611z"/>
	<polyline fill="#D1B79F" points="256.37,234.285 238.841,223.699 255.391,175.662 	"/>
	<polygon fill="#B19177" points="255.476,233.744 238.841,223.699 255.476,244.826 	"/>
	<polygon fill="#C0A58D" points="255.476,233.744 272.848,223.293 255.476,244.826 	"/>
	<polygon fill="#E1C5B6" points="245.073,211.895 241.815,223.293 254.781,229.603 244.462,220.749 	"/>
	<g>
		<path fill="#B19177" d="M223.102,240.878c0,0,0.331,0.112,0.95,0.321c0.584,0.231,1.516,0.498,2.575,0.895
			c1.047,0.37,2.319,0.819,3.778,1.334c1.414,0.502,2.966,1.049,4.611,1.587c0.422,0.121,0.819,0.28,1.236,0.422
			c0.418,0.129,0.845,0.261,1.279,0.395c0.849,0.286,1.721,0.533,2.598,0.801c1.76,0.493,3.546,0.981,5.323,1.367
			c0.439,0.125,0.902,0.146,1.335,0.261c0.44,0.086,0.875,0.219,1.319,0.263c0.888,0.119,1.757,0.276,2.62,0.377
			c0.862,0.171,1.731,0.095,2.576,0.253l1.274,0.046l0.635,0.03c0.212,0,0.423-0.029,0.634-0.027l1.267,0.029l1.267-0.088
			c0.843-0.029,1.698-0.13,2.554-0.204c0.432-0.007,0.851-0.147,1.283-0.2c0.438-0.053,0.875-0.106,1.309-0.159
			c0.863-0.195,1.729-0.392,2.626-0.523c0.88-0.226,1.738-0.49,2.647-0.649c0.885-0.257,1.735-0.561,2.635-0.771
			c0.896-0.221,1.716-0.599,2.59-0.838c0.437-0.132,0.865-0.263,1.286-0.391c0.412-0.159,0.811-0.325,1.229-0.46
			c0.831-0.276,1.615-0.576,2.413-0.817c0.782-0.271,1.491-0.588,2.22-0.827c0.725-0.245,1.389-0.501,2.053-0.699
			c0.644-0.233,1.234-0.447,1.769-0.641c1.073-0.397,2.021-0.64,2.63-0.846c0.627-0.19,0.991-0.272,0.991-0.272l0.822,0.73
			c0,0-0.815,0.914-2.242,2.513c-0.361,0.396-0.742,0.854-1.193,1.316c-0.461,0.456-0.959,0.948-1.491,1.474
			c-0.535,0.523-1.093,1.094-1.704,1.672c-0.644,0.544-1.319,1.116-2.024,1.713c-0.354,0.298-0.716,0.602-1.084,0.912
			c-0.389,0.285-0.785,0.575-1.188,0.869c-0.819,0.573-1.626,1.225-2.53,1.787c-0.91,0.557-1.845,1.129-2.8,1.713
			c-1.007,0.5-2.035,1.01-3.08,1.529c-1.084,0.438-2.193,0.872-3.321,1.296c-1.163,0.32-2.319,0.729-3.527,0.981
			c-1.213,0.226-2.424,0.533-3.675,0.619c-0.622,0.062-1.244,0.143-1.869,0.188l-1.884,0.038c-0.629,0.026-1.256-0.009-1.881-0.066
			c-0.625-0.05-1.251-0.086-1.873-0.148c-1.231-0.211-2.475-0.334-3.666-0.658c-2.415-0.511-4.696-1.353-6.846-2.26
			c-2.153-0.914-4.106-2.047-5.916-3.169c-1.777-1.173-3.421-2.332-4.845-3.517c-1.445-1.159-2.69-2.312-3.751-3.374
			c-1.074-1.049-1.948-2.024-2.667-2.825c-1.414-1.616-2.144-2.634-2.144-2.633L223.102,240.878z"/>
	</g>
	<g>
		<path d="M192.926,151.733c0,0,0.039-0.224,0.157-0.6c0.125-0.365,0.288-0.938,0.581-1.578c0.285-0.648,0.673-1.402,1.182-2.208
			c0.506-0.811,1.142-1.657,1.899-2.528c0.77-0.847,1.657-1.724,2.693-2.53c1.032-0.808,2.197-1.579,3.489-2.237
			c0.641-0.35,1.318-0.641,2.025-0.914c0.353-0.136,0.701-0.289,1.069-0.412c0.371-0.107,0.743-0.216,1.116-0.325
			c1.503-0.445,3.105-0.679,4.741-0.805c1.634-0.072,3.309-0.012,4.933,0.285c1.628,0.257,3.204,0.76,4.65,1.381
			c0.712,0.355,1.421,0.651,2.063,1.061c0.635,0.425,1.267,0.786,1.824,1.239c0.548,0.469,1.081,0.897,1.559,1.359
			c0.456,0.495,0.891,0.955,1.275,1.431c0.756,0.961,1.345,1.909,1.781,2.788c0.413,0.907,0.749,1.674,0.924,2.381
			c0.196,0.686,0.272,1.277,0.347,1.647c0.063,0.382,0.076,0.601,0.075,0.601l-0.565,0.565c0,0-0.484-0.417-1.331-1.147
			c-0.417-0.371-0.985-0.745-1.599-1.213c-0.302-0.243-0.667-0.438-1.03-0.674c-0.373-0.22-0.731-0.504-1.157-0.713
			c-0.416-0.225-0.849-0.46-1.297-0.703c-0.464-0.208-0.945-0.421-1.438-0.642c-0.501-0.2-1.029-0.372-1.561-0.566
			c-0.543-0.158-1.098-0.319-1.662-0.483c-0.573-0.127-1.158-0.252-1.751-0.364c-0.601-0.069-1.203-0.188-1.82-0.222
			c-1.23-0.098-2.489-0.124-3.744-0.027c-1.256,0.06-2.51,0.222-3.733,0.449c-1.223,0.229-2.415,0.528-3.554,0.875
			c-2.278,0.689-4.354,1.524-6.083,2.35c-1.725,0.834-3.139,1.591-4.097,2.173c-0.963,0.581-1.476,0.944-1.476,0.944
			L192.926,151.733z"/>
	</g>
	<g>
		<path d="M272.605,151.733c0,0,0.038-0.224,0.157-0.6c0.126-0.365,0.288-0.938,0.581-1.578c0.285-0.648,0.673-1.402,1.182-2.208
			c0.506-0.811,1.142-1.657,1.899-2.528c0.771-0.847,1.657-1.724,2.693-2.53c1.031-0.808,2.197-1.579,3.489-2.237
			c0.642-0.35,1.318-0.641,2.025-0.914c0.354-0.136,0.701-0.29,1.068-0.412c0.371-0.108,0.743-0.216,1.116-0.325
			c1.504-0.445,3.105-0.679,4.741-0.805c1.634-0.072,3.309-0.012,4.933,0.285c1.629,0.257,3.204,0.76,4.65,1.381
			c0.713,0.355,1.422,0.651,2.063,1.061c0.635,0.425,1.268,0.786,1.824,1.239c0.548,0.469,1.081,0.897,1.559,1.359
			c0.455,0.495,0.891,0.955,1.274,1.431c0.757,0.961,1.346,1.909,1.782,2.788c0.412,0.907,0.748,1.674,0.924,2.381
			c0.196,0.686,0.272,1.277,0.348,1.647c0.063,0.382,0.075,0.601,0.075,0.601l-0.566,0.565c0,0-0.483-0.417-1.331-1.146
			c-0.416-0.372-0.984-0.745-1.599-1.214c-0.302-0.243-0.668-0.438-1.029-0.674c-0.373-0.22-0.731-0.504-1.158-0.713
			c-0.415-0.225-0.849-0.46-1.297-0.703c-0.465-0.208-0.944-0.421-1.438-0.642c-0.501-0.2-1.029-0.372-1.561-0.566
			c-0.543-0.158-1.098-0.319-1.661-0.483c-0.573-0.127-1.158-0.252-1.752-0.364c-0.602-0.069-1.203-0.188-1.82-0.222
			c-1.23-0.098-2.489-0.124-3.744-0.027c-1.256,0.06-2.51,0.222-3.733,0.449c-1.223,0.229-2.415,0.528-3.553,0.875
			c-2.278,0.689-4.354,1.524-6.084,2.35c-1.725,0.834-3.139,1.591-4.098,2.173c-0.963,0.581-1.476,0.944-1.476,0.944
			L272.605,151.733z"/>
	</g>
	
		<line fill="none" stroke="#000000" stroke-width="8" stroke-miterlimit="10" x1="194.695" y1="167.057" x2="229.501" y2="167.057"/>
	
		<line fill="none" stroke="#000000" stroke-width="8" stroke-miterlimit="10" x1="274.374" y1="167.057" x2="309.181" y2="167.057"/>
	<path fill="#D1B79F" d="M194.762,169.455c0,9.574,7.762,17.336,17.336,17.336s17.336-7.763,17.336-17.336H194.762z"/>
	<path fill="#C0A58D" d="M274.44,169.455c0,9.574,7.762,17.336,17.337,17.336c9.574,0,17.336-7.763,17.336-17.336H274.44z"/>
	<path d="M354.377,122.028c-3.663-17.606,12.823-64.625-21.982-65.236l1.832-14.045l-7.938,6.717c0,0-5.496-13.697-12.823-16.619
		c-7.328-2.921-98.924-29.179-128.235,25.779l-40.435,33.585c0,0,14.789,12.213,15.399,23.815
		c0.345,6.549,0.329,13.458,1.401,20.322c-7.783,21.006,12.014,62.346,12.014,62.346l-5.135-49.732
		c14.536-4.443,22.436-27.186,25.284-37.333c14.471,6.643,47.272,15.282,97.724-7.139c0,0,11.587-1.067,23.999,3.931
		c2.773,12.195,10.347,34.948,28.575,37.878c0.13,0.77,0.252,1.551,0.361,2.348l-5.049,48.898c0,0,18.346-31.416,12.802-52.505
		C354.426,138.084,355.98,129.734,354.377,122.028z"/>
	<path fill="#2E4056" d="M81.741,423.833h346.902c-0.938-8.042-2.059-18.391-3.267-31.11H85.008
		C83.8,405.442,82.68,415.791,81.741,423.833z"/>
	<path fill="#2E4056" d="M255.192,355.285c-5.44-0.548-28.817-3.373-47.975-12.993h-76.971
		c-17.089,7.931-33.356,18.336-40.648,31.109h331.188c-7.291-12.773-23.56-23.179-40.648-31.109h-76.971
		C284.01,351.912,260.632,354.737,255.192,355.285z"/>
	<path fill="#6F8593" d="M185.23,323.642c0,0-28.478,6.349-54.984,18.65h76.971C198.169,337.749,190.061,331.693,185.23,323.642z"/>
	<path fill="#6F8593" d="M85.696,385.315c-0.232,2.554-0.461,5.021-0.688,7.407h340.368c-0.227-2.387-0.456-4.854-0.688-7.407
		c-0.379-4.175-1.752-8.147-3.901-11.914H89.598C87.447,377.168,86.076,381.141,85.696,385.315z"/>
	<path fill="#6F8593" d="M79.267,443.153h351.85c-0.429-2.968-1.313-9.374-2.475-19.32H81.741
		C80.579,433.779,79.695,440.186,79.267,443.153z"/>
</g>
</svg>
